#tb 0: 1/25
#media_type 0: video
#codec_id 0: rawvideo
#dimensions 0: 416x240
#sar 0: 0/1
0,          0,          0,        1,   149760, 0x8edb27d7
0,          1,          1,        1,   149760, 0xea7b30bf
0,          2,          2,        1,   149760, 0x273d092a
0,          3,          3,        1,   149760, 0xef4e0ff0
0,          4,          4,        1,   149760, 0x9805e02c
0,          5,          5,        1,   149760, 0xdeb17cbc
0,          6,          6,        1,   149760, 0xe5c903a4
0,          7,          7,        1,   149760, 0x838d66b9
